<?xml version="1.0" standalone="no"?>
<!DOCTYPE svg PUBLIC "-//W3C//DTD SVG 20010904//EN"
 "http://www.w3.org/TR/2001/REC-SVG-20010904/DTD/svg10.dtd">
<svg version="1.0" xmlns="http://www.w3.org/2000/svg"
 width="400.000000pt" height="400.000000pt" viewBox="0 0 400.000000 400.000000"
 preserveAspectRatio="xMidYMid meet">
<metadata>
Created by potrace 1.14, written by Peter Selinger 2001-2017
</metadata>
<g transform="translate(0.000000,400.000000) scale(0.100000,-0.100000)"
fill="#000000" stroke="none">
<path d="M0 2000 l0 -2000 2000 0 2000 0 0 2000 0 2000 -2000 0 -2000 0 0
-2000z m583 1667 c12 -19 14 -39 8 -81 0 -4 -10 -6 -22 -3 -16 4 -18 3 -9 -8
9 -11 7 -12 -9 -8 -25 6 -17 31 12 35 13 2 21 11 22 26 1 19 -3 22 -38 22 -38
0 -39 -1 -35 -30 3 -19 0 -30 -8 -30 -11 0 -23 67 -16 89 2 6 21 11 42 11 28
0 41 -6 53 -23z m47 -8 c0 -5 -5 -9 -11 -9 -5 0 -7 5 -4 10 3 6 1 10 -4 10 -6
0 -11 5 -11 11 0 8 5 8 15 -1 8 -7 15 -16 15 -21z m117 25 c-3 -3 -12 -4 -19
-1 -8 3 -5 6 6 6 11 1 17 -2 13 -5z m70 0 c-3 -3 -12 -4 -19 -1 -8 3 -5 6 6 6
11 1 17 -2 13 -5z m-347 -12 c0 -4 -8 -15 -19 -24 -18 -15 -19 -14 -30 8 -10
22 -9 24 19 24 17 0 30 -3 30 -8z m177 -14 c-3 -8 -6 -5 -6 6 -1 11 2 17 5 13
3 -3 4 -12 1 -19z m53 5 c0 -14 -2 -15 -9 -4 -5 7 -14 10 -20 7 -6 -4 -11 -2
-11 3 0 6 9 11 20 11 12 0 20 -7 20 -17z m65 -3 c-3 -5 -10 -10 -16 -10 -5 0
-9 5 -9 10 0 6 7 10 16 10 8 0 12 -4 9 -10z m75 -43 c0 -9 -12 -14 -30 -15
-41 -1 -49 -8 -48 -42 1 -17 -2 -33 -5 -37 -13 -12 -7 63 6 79 19 25 77 36 77
15z m-190 -7 c0 -5 -4 -10 -10 -10 -5 0 -10 5 -10 10 0 6 5 10 10 10 6 0 10
-4 10 -10z m250 0 c0 -5 -5 -10 -11 -10 -5 0 -7 5 -4 10 3 6 8 10 11 10 2 0 4
-4 4 -10z m40 0 c0 -5 -4 -10 -10 -10 -5 0 -10 5 -10 10 0 6 5 10 10 10 6 0
10 -4 10 -10z m54 -15 c-4 -8 -8 -15 -10 -15 -2 0 -4 7 -4 15 0 8 4 15 10 15
5 0 7 -7 4 -15z m-334 -48 c0 -5 -4 -5 -10 -2 -5 3 -10 14 -10 23 0 15 2 15
10 2 5 -8 10 -19 10 -23z m218 -2 c-3 -3 -9 2 -12 12 -6 14 -5 15 5 6 7 -7 10
-15 7 -18z m-53 7 l-30 -5 25 -7 c21 -7 19 -8 -14 -9 -37 -1 -38 0 -20 14 10
8 30 14 44 13 22 -1 21 -2 -5 -6z m-311 -18 c3 -8 2 -12 -4 -9 -6 3 -10 10
-10 16 0 14 7 11 14 -7z m156 -24 c0 -5 -5 -10 -11 -10 -5 0 -7 5 -4 10 3 6 8
10 11 10 2 0 4 -4 4 -10z m620 -280 c497 -29 691 -40 835 -49 88 -6 297 -18
464 -26 168 -9 309 -19 314 -22 6 -4 7 -117 3 -302 -3 -163 -8 -498 -11 -746
-3 -247 -8 -537 -11 -643 l-6 -192 -32 5 c-17 3 -94 14 -171 25 -77 11 -216
31 -310 45 -93 15 -233 35 -310 45 -77 11 -151 22 -164 25 -26 7 -229 36 -581
85 -118 17 -237 34 -265 40 -27 5 -76 12 -108 16 -48 5 -58 10 -61 28 -3 11
-7 107 -11 211 -3 105 -14 460 -25 790 -11 330 -20 620 -20 644 l0 44 153 -7
c83 -3 226 -10 317 -16z"/>
<path d="M887 3173 c-16 -4 -18 -12 -13 -51 3 -26 8 -207 12 -402 3 -195 9
-393 13 -440 6 -82 7 -85 33 -90 16 -3 38 -21 56 -45 l29 -40 169 -18 c93 -10
194 -22 224 -27 30 -5 79 -11 108 -15 l52 -6 0 101 c0 82 3 100 15 100 13 0
15 45 14 353 -1 459 1 441 -74 506 -34 29 -70 51 -83 51 -13 0 -21 -4 -18 -9
3 -4 6 -179 6 -387 l1 -379 -43 -3 c-24 -1 -88 4 -143 11 l-100 13 -12 319
c-17 481 -18 443 15 448 15 2 -11 5 -58 6 -47 0 -107 3 -135 5 -27 3 -58 2
-68 -1z"/>
<path d="M2022 2594 l3 -519 28 -5 c15 -3 49 -26 76 -52 l49 -48 129 -15 c301
-38 450 -54 481 -55 l32 0 0 106 0 106 29 -4 29 -4 7 170 c3 94 5 288 3 431
l-3 259 -55 32 c-141 82 -146 84 -212 82 -53 -1 -56 -2 -18 -5 l45 -4 -9 -407
c-4 -224 -10 -409 -12 -411 -2 -3 -73 2 -157 10 l-152 14 0 405 0 405 110 -2
110 -1 -85 8 c-47 4 -163 11 -258 15 l-172 8 2 -519z"/>
</g>
</svg>
